<svg width="76" height="42" viewBox="0 0 76 42" fill="none" xmlns="http://www.w3.org/2000/svg">
<path d="M22.6716 7.76913C25.0034 7.78115 25.7717 8.35013 25.7717 8.35013V10.43H21.0162V11.747L23.5123 11.8524C25.4098 11.9316 26.5838 12.7517 26.573 14.5676C26.5672 16.0441 25.4565 16.8288 24.2217 16.8288H19.4644V14.5905H24.1157V13.5432C19.9918 13.4905 19.0416 13.406 19.0416 10.6747C19.0416 8.40896 20.4928 7.7405 22.6716 7.76913Z" fill="white"/>
<path d="M40.9805 7.97038L46.4064 8.01419L46.4103 9.64002L42.6809 9.70585L42.7264 10.825H45.3796V12.9006L42.8398 13.6166L42.9019 15.1439L46.2614 14.5626V16.7978H40.9805V7.97038Z" fill="white"/>
<path d="M47.1719 8.01419H52.5942V9.66636L48.9702 9.77169L49.0446 10.9307L51.7025 10.825V12.9583L49.2678 13.564L49.3673 15.0882L52.5942 14.7012L52.7024 16.842H47.1719V8.01419Z" fill="white"/>
<path d="M26.5981 8.04073L32.4818 8.02299L32.4186 10.8984H30.6131L30.62 16.7978H28.5173V10.9488H26.5981V8.04073Z" fill="white"/>
<path d="M58.9274 7.95514V10.8517H57.0578V16.9078H55.1179V10.957H53.2263V8.01419L58.9274 7.95514Z" fill="white"/>
<path fill-rule="evenodd" clip-rule="evenodd" d="M33.347 8.07571H37.8833C39.4071 8.07571 40.155 9.11106 40.155 10.4827C40.155 11.6653 39.534 12.5606 38.3638 12.8766L40.1623 16.7978H37.3775L36.7773 13.5109H35.3086V16.2495H33.3119L33.347 8.07571ZM35.4812 9.76191V11.7997C37.0517 12.0987 38.2248 11.8524 38.2248 10.6937C38.2248 10.061 37.8737 9.49281 36.701 9.47726C36.0487 9.4721 35.4812 9.76191 35.4812 9.76191Z" fill="white"/>
<path fill-rule="evenodd" clip-rule="evenodd" d="M34.7121 1.93928C34.7121 0.87374 35.2022 0 36.1877 0C37.1731 0 37.6633 0.87374 37.6633 1.93928C37.6633 3.00481 37.1731 3.87856 36.1877 3.87856C35.2022 3.8792 34.7121 3.00546 34.7121 1.93928ZM36.1877 3.32512C36.5338 3.32512 36.7366 2.71228 36.7366 1.93992C36.7366 1.16757 36.5338 0.554726 36.1877 0.554726C35.8416 0.554726 35.6388 1.16757 35.6388 1.93992C35.6394 2.71228 35.8416 3.32512 36.1877 3.32512ZM25.4104 0.0749844V1.2206L26.1886 0.0749844H27.0946L25.7785 1.41756L28.1814 0.0749844V0.927414L26.0239 1.73722L28.1814 1.53509V2.3449L26.0239 2.14277L28.1814 2.95258V3.80501L25.7785 2.46243L27.0946 3.80501H26.1879L25.4098 2.6594V3.80501H24.6639V0.0749844H25.4104ZM28.7135 0.0749844H29.5924L29.4594 2.48826L30.5514 0.0749844H31.2707V3.80436H30.3918L30.5249 1.39108L29.4329 3.80436H28.7135V0.0749844ZM32.6824 0.0749844H31.8035V3.80436H32.6824V2.0995H33.4282V3.80436H34.3071V0.0749844H33.4282V1.51378H32.6824V0.0749844ZM40.599 0.0749844H38.0688V3.80436H38.9477V0.660707H39.7201V3.80436H40.599V0.0749844ZM41.0038 1.93928C41.0038 0.87374 41.4939 0 42.4794 0C43.4648 0 43.955 0.87374 43.955 1.93928C43.955 3.00481 43.4648 3.87856 42.4794 3.87856C41.4939 3.87856 41.0038 3.00546 41.0038 1.93928ZM42.48 3.32512C42.8262 3.32512 43.0289 2.71228 43.0289 1.93992C43.0289 1.16757 42.8262 0.554726 42.48 0.554726C42.1339 0.554726 41.9311 1.16757 41.9311 1.93992C41.9311 2.71228 42.1333 3.32512 42.48 3.32512ZM45.2395 0.0749844H44.3606V3.80436H45.0799L46.1719 1.39108L46.0389 3.80436H46.9178V0.0749844H46.1984L45.1064 2.48826L45.2395 0.0749844ZM49.2562 2.48819L50.0925 2.61606L50.066 2.74392C49.922 3.43684 49.4854 3.87856 48.766 3.87856C47.7806 3.87856 47.3221 3.00481 47.3221 1.93928C47.3221 0.87374 47.7806 0 48.766 0C49.459 0 49.9007 0.442359 50.0557 1.09201L50.0821 1.20373L49.2245 1.39553C49.1606 0.878907 49.0063 0.553434 48.766 0.553434C48.4199 0.553434 48.2494 1.16628 48.2494 1.93863C48.2494 2.71098 48.4199 3.32383 48.766 3.32383C49.0276 3.32512 49.1923 2.97834 49.2562 2.48819ZM51.3336 0.0749844H50.4553V3.80436H51.3342V2.12598L52 3.80436H52.9854L51.9199 1.88123L52.959 0.0749844H52.053L51.3336 1.75337V0.0749844Z" fill="white"/>
<path d="M76 38.2376L72.0329 39.9228L70.2989 35.7886H74.9228L76 38.2376Z" fill="white"/>
<path d="M43.9115 39.4819L39.7432 39.2579L40.006 18.9881H44.552L43.9115 39.4819Z" fill="white"/>
<path d="M72.8736 30.5885H68.2987L66.5157 25.8876H66.0953L60.3494 39.3958L56.9526 37.4739L64.5715 19.3568H68.4565L72.8736 30.5885Z" fill="white"/>
<path d="M32.8346 35.7852H37.5324L38.5194 38.3092L34.4865 39.9751L32.8346 35.7852Z" fill="white"/>
<path d="M55.5601 38.7642L51.6718 39.0012L51.7769 33.0842H44.7925L44.9044 29.4685H50.9625L50.9706 19.5202L55.1625 19.3041L55.3722 29.4685H56.2169V33.0842H55.4442L55.5601 38.7642Z" fill="white"/>
<path d="M27.4581 19.3179H31.3108L35.672 30.6275H30.895L29.209 25.8846H28.8675L22.8622 39.4365L19.5671 37.5529L27.4581 19.3179Z" fill="white"/>
<path d="M75.4089 31.3803L75.366 34.9879H62.96L64.5572 31.2331L75.4089 31.3803Z" fill="white"/>
<path d="M37.9708 31.3381V35.1303L25.5917 34.9371L27.1865 31.3381H37.9708Z" fill="white"/>
<path d="M13.9445 31.4082L15.6154 33.2817L14.8187 33.7566L20.5987 40.0397L17.5777 41.8384L12.9021 34.9113L11.5532 35.7021L10.6596 34.5659L13.9445 31.4082Z" fill="white"/>
<path d="M19.484 19.2604C19.586 19.1672 19.7487 19.1998 19.7941 19.3304C20.9738 22.7213 15.4385 28.8707 9.87025 34.5816L8.45658 33.4464L2.84301 40.4063L0 38.095L6.77248 32.0937L6.07464 31.5144L19.484 19.2604Z" fill="white"/>
<path d="M3.14889 19.0437C3.20579 18.9262 3.35986 18.9224 3.44442 19.0218L10.1467 26.8984L7.15575 29.6032C4.68785 26.6625 2.09509 21.2198 3.14889 19.0437Z" fill="white"/>
</svg>
