<svg width="36" height="36" viewBox="0 0 36 36" fill="none" xmlns="http://www.w3.org/2000/svg">
<g clip-path="url(#clip0_46_504)">
<path fill-rule="evenodd" clip-rule="evenodd" d="M36 18C36 23.279 33.525 27.98 29.672 31.006L27.297 28.291C28.8843 27.086 30.1711 25.5299 31.0564 23.7445C31.9418 21.959 32.4016 19.9929 32.4 18C32.4 13.8 30.398 10.07 27.297 7.70799L29.672 4.99399C31.6453 6.53892 33.2407 8.51307 34.3371 10.7666C35.4336 13.0202 36.0023 15.4939 36 18ZM28.917 18C28.918 19.4964 28.563 20.9717 27.8812 22.3038C27.1994 23.6359 26.2104 24.7866 24.996 25.661L22.608 22.932C23.4384 22.4046 24.1221 21.676 24.5957 20.8138C25.0693 19.9516 25.3174 18.9837 25.317 18C25.3174 17.0163 25.0693 16.0484 24.5957 15.1862C24.1221 14.324 23.4384 13.5954 22.608 13.068L24.996 10.338C26.2104 11.2125 27.1992 12.3635 27.8809 13.6958C28.5625 15.0281 28.9183 16.5035 28.917 18ZM9 12.75L18.75 5.99999V30L9 23.25H3.75V12.75H9Z" fill="white"/>
</g>
<defs>
<clipPath id="clip0_46_504">
<rect width="36" height="36" fill="white"/>
</clipPath>
</defs>
</svg>
