<svg width="146" height="20" viewBox="0 0 146 20" fill="none" xmlns="http://www.w3.org/2000/svg">
<path d="M3.84831 0.386503V6.29393L7.85975 0.386503H12.5303L5.74584 7.30958L18.133 0.386503V4.7821L7.01085 8.95793L18.133 7.91564V12.0915L7.01085 11.0492L18.133 15.225V19.6206L5.74584 12.6975L12.5303 19.6206H7.85642L3.84499 13.7132V19.6206H0V0.386503H3.84831Z" fill="white"/>
<path d="M20.8762 0.386503H25.407L24.7212 12.8307L30.3505 0.386503H34.059V19.6173H29.5283L30.214 7.17305L24.5847 19.6173H20.8762V0.386503Z" fill="white"/>
<path d="M36.805 0.386503H41.3358V7.80575H45.1807V0.386503H49.7115V19.6173H45.1807V10.8261H41.3358V19.6173H36.805V0.386503Z" fill="white"/>
<path d="M51.7985 10C51.7985 4.50549 54.3252 0 59.4052 0C64.4853 0 67.012 4.50549 67.012 10C67.012 15.4945 64.4853 20 59.4052 20C54.3252 20.0033 51.7985 15.4978 51.7985 10ZM59.4052 17.1462C61.1896 17.1462 62.2349 13.986 62.2349 10.0033C62.2349 6.02065 61.1896 2.86048 59.4052 2.86048C57.6209 2.86048 56.5756 6.02065 56.5756 10.0033C56.5789 13.986 57.6209 17.1462 59.4052 17.1462Z" fill="white"/>
<path d="M69.1036 0.386503H82.1466V19.6173H77.6158V3.40682H73.6344V19.6173H69.1036V0.386503Z" fill="white"/>
<path d="M84.2335 10C84.2335 4.50549 86.7602 0 91.8402 0C96.9202 0 99.4469 4.50549 99.4469 10C99.4469 15.4945 96.9202 20 91.8402 20C86.7602 20 84.2335 15.4978 84.2335 10ZM91.8435 17.1462C93.6279 17.1462 94.6732 13.986 94.6732 10.0033C94.6732 6.02065 93.6279 2.86048 91.8435 2.86048C90.0592 2.86048 89.0139 6.02065 89.0139 10.0033C89.0139 13.986 90.0559 17.1462 91.8435 17.1462Z" fill="white"/>
<path d="M101.538 0.386503H106.069L105.383 12.8307L111.012 0.386503H114.721V19.6173H110.19L110.876 7.17305L105.247 19.6173H101.538V0.386503Z" fill="white"/>
<path d="M126.774 12.8305L131.085 13.4898L130.949 14.1492C130.206 17.7223 127.956 20 124.248 20C119.167 20 116.804 15.4945 116.804 10C116.804 4.50549 119.167 0 124.248 0C127.82 0 130.097 2.28105 130.896 5.63104L131.032 6.20712L126.611 7.19614C126.282 4.53213 125.486 2.85381 124.248 2.85381C122.463 2.85381 121.584 6.01399 121.584 9.99667C121.584 13.9794 122.463 17.1395 124.248 17.1395C125.596 17.1462 126.445 15.358 126.774 12.8305Z" fill="white"/>
<path d="M132.954 0.386503H137.484V9.04118L141.193 0.386503H145.863L140.507 9.70052L146 19.6173H140.92L137.488 10.9626V19.6173H132.957V0.386503H132.954Z" fill="white"/>
</svg>
