<svg width="130" height="71" viewBox="0 0 130 71" fill="none" xmlns="http://www.w3.org/2000/svg">
<path d="M38.7804 13.1843C42.7689 13.2047 44.0832 14.1702 44.0832 14.1702V17.6998H35.9488V19.9348L40.2184 20.1135C43.4642 20.2479 45.4723 21.6396 45.4538 24.7212C45.4439 27.227 43.544 28.5586 41.4318 28.5586H33.2943V24.7602H41.2505V22.9829C34.1966 22.8935 32.5712 22.75 32.5712 18.115C32.5712 14.2701 35.0535 13.1357 38.7804 13.1843Z" fill="white"/>
<path d="M70.0983 13.5258L79.3793 13.6001L79.3861 16.3592L73.0068 16.4709L73.0846 18.3701H77.623V21.8924L73.2786 23.1075L73.3848 25.6993L79.1314 24.7128V28.5061H70.0983V13.5258Z" fill="white"/>
<path d="M80.6888 13.6001H89.9637V16.4039L83.7648 16.5826L83.8921 18.5495L88.4385 18.3701V21.9904L84.2738 23.0181L84.444 25.6047L89.9637 24.9481L90.1488 28.5809H80.6888V13.6001Z" fill="white"/>
<path d="M45.4967 13.6452L55.5609 13.6151L55.4529 18.4947H52.3645L52.3763 28.5061H48.7796V18.5802H45.4967V13.6452Z" fill="white"/>
<path d="M100.797 13.4999V18.4154H97.5988V28.6927H94.2807V18.5942H91.045V13.6001L100.797 13.4999Z" fill="white"/>
<path fill-rule="evenodd" clip-rule="evenodd" d="M57.041 13.7045H64.8003C67.4068 13.7045 68.6862 15.4615 68.6862 17.7891C68.6862 19.7961 67.624 21.3155 65.6223 21.8517L68.6988 28.5061H63.9352L62.9085 22.9281H60.3963V27.5755H56.9809L57.041 13.7045ZM60.6915 16.566V20.0241C63.3779 20.5316 65.3846 20.1135 65.3846 18.1473C65.3846 17.0735 64.784 16.1094 62.7781 16.083C61.6623 16.0742 60.6915 16.566 60.6915 16.566Z" fill="white"/>
<path fill-rule="evenodd" clip-rule="evenodd" d="M59.376 3.29097C59.376 1.48274 60.2144 0 61.9 0C63.5856 0 64.424 1.48274 64.424 3.29097C64.424 5.09919 63.5856 6.58193 61.9 6.58193C60.2144 6.58303 59.376 5.10028 59.376 3.29097ZM61.9 5.64275C62.4921 5.64275 62.8389 4.60275 62.8389 3.29206C62.8389 1.98137 62.4921 0.941373 61.9 0.941373C61.3079 0.941373 60.9611 1.98137 60.9611 3.29206C60.9622 4.60275 61.3079 5.64275 61.9 5.64275ZM43.4652 0.127249V2.07136L44.7962 0.127249H46.346L44.0948 2.40561L48.205 0.127249V1.57383L44.5145 2.94808L48.205 2.60506V3.97931L44.5145 3.6363L48.205 5.01055V6.45712L44.0948 4.17876L46.346 6.45712H44.7951L43.4641 4.51301V6.45712H42.1882V0.127249H43.4652ZM49.1152 0.127249H50.6186L50.391 4.2226L52.2589 0.127249H53.4894V6.45603H51.9861L52.2136 2.36068L50.3457 6.45603H49.1152V0.127249ZM55.9041 0.127249H54.4007V6.45603H55.9041V3.56287H57.1799V6.45603H58.6833V0.127249H57.1799V2.5689H55.9041V0.127249ZM69.4456 0.127249H65.1178V6.45603H66.6211V1.12122H67.9423V6.45603H69.4456V0.127249ZM70.1381 3.29097C70.1381 1.48274 70.9765 0 72.6621 0C74.3477 0 75.1861 1.48274 75.1861 3.29097C75.1861 5.09919 74.3477 6.58193 72.6621 6.58193C70.9765 6.58193 70.1381 5.10028 70.1381 3.29097ZM72.6632 5.64275C73.2553 5.64275 73.6021 4.60275 73.6021 3.29206C73.6021 1.98137 73.2553 0.941373 72.6632 0.941373C72.0712 0.941373 71.7243 1.98137 71.7243 3.29206C71.7243 4.60275 72.07 5.64275 72.6632 5.64275ZM77.3833 0.127249H75.8799V6.45603H77.1104L78.9783 2.36068L78.7508 6.45603H80.2542V0.127249H79.0236L77.1557 4.2226L77.3833 0.127249ZM84.254 4.22247L85.6845 4.43946L85.6392 4.65645C85.3928 5.83234 84.6461 6.58193 83.4156 6.58193C81.73 6.58193 80.9457 5.09919 80.9457 3.29097C80.9457 1.48274 81.73 0 83.4156 0C84.6008 0 85.3564 0.750687 85.6215 1.85315L85.6668 2.04274L84.1999 2.36822C84.0905 1.49151 83.8265 0.939181 83.4156 0.939181C82.8235 0.939181 82.5319 1.97918 82.5319 3.28987C82.5319 4.60056 82.8235 5.64056 83.4156 5.64056C83.863 5.64275 84.1446 5.05426 84.254 4.22247ZM87.8074 0.127249H86.3051V6.45603H87.8085V3.6078L88.9474 6.45603H90.633L88.8104 3.19246L90.5877 0.127249H89.038L87.8074 2.97547V0.127249Z" fill="white"/>
<path d="M130 64.8894L123.214 67.7493L120.248 60.7335H128.157L130 64.8894Z" fill="white"/>
<path d="M75.1118 67.0011L67.9818 66.6209L68.4312 32.2229H76.2074L75.1118 67.0011Z" fill="white"/>
<path d="M124.652 51.9088H116.827L113.777 43.9314H113.058L103.229 66.855L97.4189 63.5935L110.451 32.8486H117.097L124.652 51.9088Z" fill="white"/>
<path d="M56.1644 60.7277H64.2002L65.8884 65.011L58.99 67.8381L56.1644 60.7277Z" fill="white"/>
<path d="M95.0371 65.7831L88.386 66.1853L88.5658 56.1441H76.6188L76.8101 50.0082H87.1727L87.1865 33.1258L94.3568 32.7592L94.7156 50.0082H96.1606V56.1441H94.8388L95.0371 65.7831Z" fill="white"/>
<path d="M46.9679 32.7826H53.5579L61.0179 51.975H52.8468L49.9628 43.9264H49.3786L39.1065 66.924L33.47 63.7275L46.9679 32.7826Z" fill="white"/>
<path d="M128.989 53.2526L128.915 59.3747H107.695L110.427 53.0028L128.989 53.2526Z" fill="white"/>
<path d="M64.9501 53.1809V59.6164L43.7752 59.2885L46.5032 53.1809H64.9501Z" fill="white"/>
<path d="M23.8524 53.2999L26.7106 56.4792L25.3477 57.2852L35.2346 67.9477L30.067 71L22.0693 59.2447L19.762 60.5866L18.2335 58.6585L23.8524 53.2999Z" fill="white"/>
<path d="M33.328 32.6849C33.5023 32.5269 33.7807 32.5822 33.8584 32.8037C35.8762 38.5582 26.408 48.9937 16.8833 58.6852L14.4652 56.7587L4.86304 68.5697L0 64.6475L11.5845 54.4633L10.3908 53.4801L33.328 32.6849Z" fill="white"/>
<path d="M5.38625 32.3173C5.48358 32.1179 5.74713 32.1115 5.89176 32.2801L17.3561 45.6468L12.2401 50.2367C8.01869 45.2464 3.5837 36.0101 5.38625 32.3173Z" fill="white"/>
</svg>
